# AST/ASF file generated using VICON BodyLanguage
# -----------------------------------------------
:version 1.10
:name VICON
:units
  mass 1.0
  length 0.45
  angle deg
:documentation
   .ast/.asf automatically generated from VICON data using
   VICON BodyBuilder and BodyLanguage model FoxedUp or BRILLIANT.MOD
:root
   order TX TY TZ RX RY RZ
   axis XYZ
   position 0 0 0  
   orientation 0 0 0 
:bonedata
  begin
     id 1 
     name lhipjoint
     direction 0.682418 -0.694059 0.22932 
     length 2.25561 
     axis 0 0 0  XYZ
  end
  begin
     id 2 
     name lfemur
     direction 0.34202 -0.939693 0  
     length 6.96448  
     axis 0 0 20  XYZ
    dof rx ry rz
    limits (-160.0 20.0)
           (-70.0 70.0)
           (-60.0 70.0)
  end
  begin
     id 3 
     name ltibia
     direction 0.34202 -0.939693 0   
     length 6.88553   
     axis 0 0 20   XYZ
    dof rx
    limits (-10.0 170.0)
  end
  begin
     id 4 
     name lfoot
     direction 0.0723587 -0.198804 0.977364   
     length 1.88518   
     axis -90 7.62852e-016 20   XYZ
    dof rx rz
    limits (-45.0 90.0)
           (-70.0 20.0)
  end
  begin
     id 5 
     name ltoes
     direction 1.53558e-011 -4.21962e-011 1   
     length 0.952124   
     axis -90 7.62852e-016 20   XYZ
    dof rx
    limits (-90.0 20.0)
  end
  begin
     id 6 
     name rhipjoint
     direction -0.657603 -0.71533 0.236348   
     length 2.18854  
     axis 0 0 0  XYZ 
  end
  begin
     id 7 
     name rfemur
     direction -0.34202 -0.939693 0   
     length 6.86686   
     axis 0 0 -20   XYZ
    dof rx ry rz
    limits (-160.0 20.0)
           (-70.0 70.0)
           (-70.0 60.0)
  end
  begin
     id 8 
     name rtibia
     direction -0.34202 -0.939693 0   
     length 6.59503   
     axis 0 0 -20   XYZ
    dof rx
    limits (-10.0 170.0)
 end
 begin
     id 9 
     name rfoot
     direction -0.101977 -0.280179 0.954516   
     length 1.93723  
     axis -90 -7.62852e-016 -20   XYZ
    dof rx rz
    limits (-45.0 90.0)
           (-20.0 70.0)
  end
  begin
     id 10 
     name rtoes
     direction -1.53564e-011 -4.21897e-011 1   
     length 0.970315   
     axis -90 -7.62852e-016 -20   XYZ
    dof rx
    limits (-90.0 20.0)
  end
  begin
     id 11 
     name lowerback
     direction -0.0339559 0.999421 -0.00235966   
     length 1.88543   
     axis 0 0 0   XYZ
    dof rx ry rz
    limits (-20.0 45.0)
           (-30.0 30.0)
           (-30.0 30.0)
  end
  begin
     id 12 
     name upperback
     direction 0.00401003 0.999739 0.0224689   
     length 1.8856   
     axis 0 0 0   XYZ
    dof rx ry rz
    limits (-20.0 45.0)
           (-30.0 30.0)
           (-30.0 30.0)
  end
  begin
     id 13 
     name thorax
     direction 0.0198619 0.999546 0.0226536   
     length 1.88352   
     axis 0 0 0   XYZ
    dof rx ry rz
    limits (-20.0 45.0)
           (-30.0 30.0)
           (-30.0 30.0)
  end
  begin
     id 14 
     name lowerneck
     direction -0.0461848 0.998632 0.0245198   
     length 1.34895   
     axis 0 0 0   XYZ
    dof rx ry rz
    limits (-20.0 45.0)
           (-30.0 30.0)
           (-30.0 30.0)
  end
  begin
     id 15 
     name upperneck
     direction -0.0180627 0.994724 -0.100984   
     length 1.35214   
     axis 0 0 0   XYZ
    dof rx ry rz
    limits (-20.0 45.0)
           (-30.0 30.0)
           (-30.0 30.0)
  end
  begin
     id 16
     name head
     direction -0.00374772 0.999293 -0.037403  
     length 1.3568  
     axis 0 0 0   XYZ
    dof rx ry rz
    limits (-20.0 45.0)
           (-30.0 30.0)
           (-30.0 30.0)
  end
  begin
     id 17 
     name lclavicle
     direction 0.971773 0.191119 0.138311  
     length 2.84954  
     axis 0 0 0   XYZ
    dof ry rz
    limits (-20.0 10.0)
           (0.0 20.0)
  end
  begin
     id 18 
     name lhumerus
     direction 1 -4.4897e-011 -2.43761e-027   
     length 4.40919   
     axis 180 -30 -90   XYZ
    dof rx ry rz
    limits (-60.0 90.0)
           (-90.0 90.0)
           (-90.0 90.0)
  end
  begin
     id 19
     name lradius
     direction 1 -4.4896e-011 -9.1621e-027   
     length 3.03857   
     axis 180 -30 -90   XYZ
    dof rx
    limits (-10.0 170.0)
  end
  begin
     id 20
     name lwrist
     direction 1 -4.4896e-011 -1.41363e-026   
     length 1.51928   
     axis 1.07133e-014 90 90   XYZ
    dof ry
    limits (-180.0 0.0)
 end
  begin
     id 21 
     name lhand
     direction 1 -4.48978e-011 -2.82725e-026   
     length 0.523208   
     axis 1.80403e-014 90 90   XYZ
    dof rx rz
    limits (-90.0 90.0)
           (-45.0 45.0)
  end
  begin
     id 22 
     name lfingers
     direction 1 -4.48977e-011 -5.6545e-026   
     length 0.421824   
     axis 3.60806e-014 90 90   XYZ
    dof rx
    limits (0.0 90.0)
  end
  begin
     id 23
     name lthumb
     direction 0.707107 -6.34962e-011 0.707107   
     length 0.605657   
     axis -90 45 2.85299e-015   XYZ
    dof rx rz
    limits (-45.0 45.0)
           (-45.0 45.0)
  end
  begin
     id 24 
     name rclavicle
     direction -0.957247 0.24311 0.156766   
     length 3.12406  
     axis 0 0 0   XYZ 
    dof ry rz
    limits (-10.0 20.0)
           (-20.0 0.0)
  end
  begin
     id 25 
     name rhumerus
     direction -1 -4.48964e-011 -1.70632e-027  
     length 4.61969   
     axis 180 30 90   XYZ
    dof rx ry rz
    limits (-90.0 60.0)
           (-90.0 90.0)
           (-90.0 90.0)
  end
  begin
     id 26 
     name rradius
     direction -1 -4.48966e-011 -6.60395e-027   
     length 3.09382   
     axis 180 30 90   XYZ
    dof rx
    limits (-10.0 170.0)
  end
  begin
     id 27 
     name rwrist
     direction -1 -4.48963e-011 -1.41363e-026   
     length 1.54691   
     axis 1.07133e-014 -90 -90   XYZ
    dof ry
    limits (-180.0 0.0)
  end
  begin
     id 28
     name rhand
     direction -1 -4.49013e-011 -2.82725e-026   
     length 0.500896   
     axis 1.80403e-014 -90 -90   XYZ
    dof rx rz
    limits (-90.0 90.0)
           (-45.0 45.0)
  end
  begin
     id 29
     name rfingers
     direction -1 -4.48902e-011 -5.6545e-026   
     length 0.403835   
     axis 3.60806e-014 -90 -90   XYZ
    dof rx
    limits (0.0 90.0)
  end
  begin
     id 30
     name rthumb
     direction -0.707107 -6.34953e-011 0.707107   
     length 0.579829   
     axis -90 -45 -2.85299e-015   XYZ
    dof rx rz
    limits (-45.0 45.0)
           (-45.0 45.0)
  end
:hierarchy
  begin
    root lhipjoint rhipjoint lowerback
    lhipjoint lfemur
    lfemur ltibia
    ltibia lfoot
    lfoot ltoes
    rhipjoint rfemur
    rfemur rtibia
    rtibia rfoot
    rfoot rtoes
    lowerback upperback
    upperback thorax
    thorax lowerneck lclavicle rclavicle
    lowerneck upperneck
    upperneck head
    lclavicle lhumerus
    lhumerus lradius
    lradius lwrist
    lwrist lhand lthumb
    lhand lfingers
    rclavicle rhumerus
    rhumerus rradius
    rradius rwrist
    rwrist rhand rthumb
    rhand rfingers
  end

#!OML:ASF E:\madness\Project 1\Capture day 1\Session 1\Female1.ASF
:FULLY-SPECIFIED
:DEGREES
470
root 14.5286 15.4897 3.74003 -177.783 -71.4711 192.373
lowerback -1.08056 -1.27539 -2.1965
upperback -4.2928 -1.77018 2.22013
thorax -3.68304 -0.813326 3.56376
lowerneck -2.78218 -0.642048 -0.536977
upperneck 29.1735 -1.88391 -2.28922
head 9.62842 -1.76292 -0.973091
rclavicle -2.28478e-014 1.88845e-014
rhumerus -62.3774 -21.2222 -24.4838
rradius 58.1721
rwrist -2.2876
rhand -15.1135 -46.3513
rfingers 7.12502
rthumb 11.0553 -76.0402
lclavicle -2.28478e-014 1.88845e-014
lhumerus -54.892 16.4279 50.356
lradius 88.2966
lwrist -4.58757
lhand -35.9754 -9.56249
lfingers 7.12502
lthumb -9.08607 20.2218
rfemur -1.40962 25.8885 2.35053
rtibia 20.4838
rfoot 7.6952 -16.3125
rtoes -8.88136
lfemur -38.2727 2.91989 -16.4864
ltibia 50.6706
lfoot -20.3914 14.1065
ltoes 8.21035
471
root 14.4909 15.5139 3.78731 -177.379 -71.215 192.147
lowerback -1.51008 -1.22808 -2.13689
upperback -4.0989 -1.69756 2.22081
thorax -3.24567 -0.787653 3.51291
lowerneck -2.81344 -0.824844 -1.15126
upperneck 28.7689 -2.17311 -1.70915
head 9.49998 -1.88285 -0.680569
rclavicle 1.77912e-014 1.66979e-014
rhumerus -62.3202 -21.5643 -24.6256
rradius 58.3363
rwrist -2.39094
rhand -15.2654 -46.3838
rfingers 7.12502
rthumb 10.9088 -76.0804
lclavicle 1.77912e-014 1.66979e-014
lhumerus -54.5886 16.8124 50.6663
lradius 88.1397
lwrist -4.64682
lhand -35.713 -10.3103
lfingers 7.12502
lthumb -8.83287 19.4848
rfemur -2.10157 26.0326 1.97822
rtibia 21.0104
rfoot 8.62868 -16.4712
rtoes -7.71924
lfemur -38.1086 2.96604 -16.7915
ltibia 50.2032
lfoot -20.3407 14.0786
ltoes 9.20451
472
root 14.4556 15.5336 3.83478 -176.963 -71.0845 191.779
lowerback -1.30851 -1.25858 -2.21978
upperback -4.28771 -1.74577 2.29895
thorax -3.54819 -0.802881 3.65158
lowerneck -1.19426 -0.95798 -2.45235
upperneck 27.6855 -2.51241 -0.656427
head 8.84531 -2.06188 -0.0833795
rclavicle 4.02042e-014 6.16232e-015
rhumerus -62.2569 -20.5498 -25.0508
rradius 58.7067
rwrist -3.06277
rhand -15.4897 -46.9951
rfingers 7.12502
rthumb 10.6924 -76.7031
lclavicle 4.02042e-014 6.16232e-015
lhumerus -55.0154 16.8695 50.8051
lradius 88.1577
lwrist -4.65939
lhand -35.5994 -10.6398
lfingers 7.12502
lthumb -8.72323 19.1599
rfemur -2.64335 26.0859 1.65809
rtibia 21.6078
rfoot 9.42318 -16.8059
rtoes -6.70519
lfemur -37.8518 2.92754 -17.1479
ltibia 49.7512
lfoot -20.1885 14.1751
ltoes 9.63926
473
root 14.4194 15.5533 3.8835 -176.717 -70.9244 191.452
lowerback -1.19277 -1.23047 -2.19788
upperback -4.29196 -1.70879 2.30495
thorax -3.6213 -0.783348 3.64843
lowerneck -1.49113 -1.14433 -2.28716
upperneck 27.9431 -2.69673 -1.07052
head 8.98506 -2.1771 -0.276102
rclavicle 6.52883e-014 -1.61016e-014
rhumerus -62.4007 -21.1596 -24.5208
rradius 58.3616
rwrist -2.33738
rhand -15.3381 -46.78
rfingers 7.12502
rthumb 10.8386 -76.4803
lclavicle 6.52883e-014 -1.61016e-014
lhumerus -55.2377 16.8475 50.9958
lradius 88.3115
lwrist -4.74836
lhand -35.6574 -10.4675
lfingers 7.12502
lthumb -8.77921 19.3299
rfemur -3.07905 26.0398 1.404
rtibia 22.2883
rfoot 10.1456 -17.1584
rtoes -5.34623
lfemur -37.4414 2.90725 -17.4808
ltibia 49.2884
lfoot -20.0296 14.3551
ltoes 9.8039
474
root 14.3805 15.5745 3.93272 -176.461 -70.699 191.15
lowerback -1.19989 -1.23964 -2.17819
upperback -4.20085 -1.71765 2.32189
thorax -3.52166 -0.789799 3.65263
lowerneck -2.46324 -1.23818 -1.62009
upperneck 28.4101 -2.6821 -1.82632
head 9.30994 -2.17707 -0.672144
rclavicle 5.68151e-014 -1.22253e-014
rhumerus -62.2179 -21.5867 -24.445
rradius 58.189
rwrist -2.00975
rhand -14.8396 -46.1614
rfingers 7.12502
rthumb 11.3195 -75.8359
lclavicle 5.68151e-014 -1.22253e-014
lhumerus -55.4218 17.0219 51.0739
lradius 88.4435
lwrist -4.85431
lhand -35.6534 -10.2279
lfingers 7.12502
lthumb -8.77533 19.5696
rfemur -3.62413 26.0594 1.13167
rtibia 23.0704
rfoot 10.9006 -17.461
rtoes -3.45202
lfemur -37.032 2.91976 -17.8092
ltibia 48.7901
lfoot -19.9575 14.4747
ltoes 9.84258
